<?xml version="1.0" encoding="UTF-8" standalone="no"?>
<!-- Created with Inkscape (http://www.inkscape.org/) -->

<svg
   width="178.29877mm"
   height="56.606804mm"
   viewBox="0 0 178.29877 56.606804"
   version="1.1"
   id="svg5"
   xml:space="preserve"
   xmlns:inkscape="http://www.inkscape.org/namespaces/inkscape"
   xmlns:sodipodi="http://sodipodi.sourceforge.net/DTD/sodipodi-0.dtd"
   xmlns="http://www.w3.org/2000/svg"
   xmlns:svg="http://www.w3.org/2000/svg"><sodipodi:namedview
     id="namedview7"
     pagecolor="#ffffff"
     bordercolor="#999999"
     borderopacity="1"
     inkscape:showpageshadow="2"
     inkscape:pageopacity="0"
     inkscape:pagecheckerboard="0"
     inkscape:deskcolor="#d1d1d1"
     inkscape:document-units="mm"
     showgrid="false" /><defs
     id="defs2"><clipPath
       clipPathUnits="userSpaceOnUse"
       id="clipPath330"><path
         d="M 0,595.276 H 841.89 V 0 H 0 Z"
         id="path328" /></clipPath></defs><g
     id="g324"
     transform="matrix(0.35277776,0,0,-0.35277778,-57.375218,134.66164)"
     inkscape:export-filename="safe4all-logo-vertical.svg"
     inkscape:export-xdpi="96"
     inkscape:export-ydpi="96"><g
       id="g326"
       clip-path="url(#clipPath330)"><g
         id="g332"
         transform="translate(242.6179,320.344)"><path
           d="m 0,0 c 0,-8.705 -9.834,-15.762 -9.834,-15.762 -12.776,9.05 -12.691,22.539 0,31.524 C -9.834,15.762 0,8.705 0,0"
           style="fill:#ffe619;fill-opacity:1;fill-rule:nonzero;stroke:none"
           id="path334" /></g><g
         id="g336"
         transform="translate(224.4214,302.1511)"><path
           d="m 0,0 c 6.147,-6.157 4.178,-18.112 4.178,-18.112 -15.422,-2.645 -24.887,6.955 -22.26,22.297 0,0 11.935,1.972 18.082,-4.185"
           style="fill:#ffe619;fill-opacity:1;fill-rule:nonzero;stroke:none"
           id="path338" /></g><g
         id="g340"
         transform="translate(224.4214,273.8712)"><path
           d="m 0,0 c 6.147,-6.157 4.178,-18.112 4.178,-18.112 -15.422,-2.645 -24.887,6.955 -22.26,22.297 0,0 11.935,1.972 18.082,-4.185"
           style="fill:#ffe619;fill-opacity:1;fill-rule:nonzero;stroke:none"
           id="path342" /></g><g
         id="g344"
         transform="translate(239.8346,302.1511)"><path
           d="m 0,0 c -6.147,-6.157 -4.178,-18.112 -4.178,-18.112 15.422,-2.645 24.887,6.955 22.26,22.297 C 18.082,4.185 6.147,6.157 0,0"
           style="fill:#ffe619;fill-opacity:1;fill-rule:nonzero;stroke:none"
           id="path346" /></g><g
         id="g348"
         transform="translate(239.8346,273.8712)"><path
           d="m 0,0 c -6.147,-6.157 -4.178,-18.112 -4.178,-18.112 15.422,-2.645 24.887,6.955 22.26,22.297 C 18.082,4.185 6.147,6.157 0,0"
           style="fill:#ffe619;fill-opacity:1;fill-rule:nonzero;stroke:none"
           id="path350" /></g><g
         id="g352"
         transform="translate(232.497,237.4418)"><path
           d="m 0,0 v 0 c -33.602,0 -54.603,35.138 -37.802,63.248 v 0 l 34.28,57.355 c 1.465,2.451 1.465,5.51 0,7.961 l -8.906,14.9 c -0.647,1.083 -2.215,1.083 -2.862,0 L -62.284,64.838 v -10e-4 c -21.522,-36.009 5.381,-81.021 48.425,-81.021 24.107,0 43.15,14.118 51.46,32.866 0.553,1.249 -1.15,2.246 -1.955,1.143 C 27.947,7.262 15.276,0 0,0"
           style="fill:#92d6e3;fill-opacity:1;fill-rule:nonzero;stroke:none"
           id="path354" /></g><g
         id="g356"
         transform="translate(293.9833,304.8943)"><path
           d="m 0,0 h 14.264 c 0,-3.062 3.303,-5.56 7.413,-5.56 3.707,0 6.768,1.934 6.768,4.432 0,7.494 -27.558,4.352 -27.558,23.208 0,10.556 8.864,17.566 20.387,17.566 11.684,0 20.548,-7.333 20.548,-17.164 H 27.64 c 0,2.741 -2.821,4.835 -6.527,4.835 -3.223,0 -6.044,-1.611 -6.044,-4.19 0,-7.655 27.64,-3.304 27.64,-22.644 0,-11.12 -9.268,-18.372 -21.193,-18.372 C 9.187,-17.889 0,-10.072 0,0"
           style="fill:#4d4d4d;fill-opacity:1;fill-rule:nonzero;stroke:none"
           id="path358" /></g><g
         id="g360"
         transform="translate(371.7602,309.488)"><path
           d="M 0,0 -6.366,18.775 -12.731,0 Z M -14.424,34.086 H 1.935 L 22.402,-21.516 H 7.253 l -2.982,8.784 h -21.354 l -2.901,-8.784 h -14.908 z"
           style="fill:#4d4d4d;fill-opacity:1;fill-rule:nonzero;stroke:none"
           id="path362" /></g><g
         id="g364"
         transform="translate(399.7539,343.574)"><path
           d="M 0,0 H 36.02 V -13.055 H 13.86 v -8.702 H 32.958 V -34.812 H 13.86 v -20.79 H 0 Z"
           style="fill:#4d4d4d;fill-opacity:1;fill-rule:nonzero;stroke:none"
           id="path366" /></g><g
         id="g368"
         transform="translate(441.3691,343.574)"><path
           d="M 0,0 H 37.229 V -13.055 H 13.86 v -8.057 H 34.65 V -34.167 H 13.86 v -8.38 H 37.632 V -55.602 H 0 Z"
           style="fill:#4d4d4d;fill-opacity:1;fill-rule:nonzero;stroke:none"
           id="path370" /></g><g
         id="g372"
         transform="translate(484.1834,308.8435)"><path
           d="M 0,0 C 9.59,12.167 14.908,23.933 16.116,34.73 H 30.702 C 29.413,24.255 25.142,13.215 17.486,1.772 h 8.22 v 8.704 H 38.841 V 1.772 h 5.076 v -13.054 h -5.076 v -9.589 H 24.98 v 9.589 H 0 Z"
           style="fill:#4d4d4d;fill-opacity:1;fill-rule:nonzero;stroke:none"
           id="path374" /></g><g
         id="g376"
         transform="translate(564.7288,309.488)"><path
           d="M 0,0 -6.366,18.775 -12.731,0 Z M -14.424,34.086 H 1.935 L 22.402,-21.516 H 7.253 l -2.982,8.784 h -21.354 l -2.901,-8.784 h -14.908 z"
           style="fill:#4d4d4d;fill-opacity:1;fill-rule:nonzero;stroke:none"
           id="path378" /></g><g
         id="g380"
         transform="translate(592.614,343.574)"><path
           d="M 0,0 H 13.86 V -42.547 H 35.214 V -55.602 H 0 Z"
           style="fill:#4d4d4d;fill-opacity:1;fill-rule:nonzero;stroke:none"
           id="path382" /></g><g
         id="g384"
         transform="translate(632.8381,343.574)"><path
           d="M 0,0 H 13.86 V -42.547 H 35.214 V -55.602 H 0 Z"
           style="fill:#4d4d4d;fill-opacity:1;fill-rule:nonzero;stroke:none"
           id="path386" /></g><g
         id="g388"
         transform="translate(387.9757,249.9324)"><path
           d="M 0,0 -3.494,9.582 -7.022,0 Z m -6.261,14.84 h 5.638 L 8.544,-9.028 H 3.32 L 1.626,-4.393 H -8.647 l -1.662,-4.635 h -5.154 z"
           style="fill:#4d4d4d;fill-opacity:1;fill-rule:nonzero;stroke:none"
           id="path390" /></g><g
         id="g392"
         transform="translate(416.2687,264.7722)"><path
           d="M 0,0 H 15.186 V -4.497 H 4.773 v -5.361 h 9.029 v -4.497 H 4.773 v -9.513 H 0 Z"
           style="fill:#4d4d4d;fill-opacity:1;fill-rule:nonzero;stroke:none"
           id="path394" /></g><g
         id="g396"
         transform="translate(456.9454,260.2751)"><path
           d="m 0,0 v -6.711 h 5.742 c 1.868,0 3.286,1.453 3.286,3.356 C 9.028,-1.452 7.61,0 5.742,0 Z M -4.773,4.497 H 5.846 c 4.6,0 8.094,-3.355 8.094,-7.817 0,-3.598 -2.352,-6.4 -5.742,-7.265 l 1.66,-2.387 c 0.9,-1.28 2.111,-1.902 3.598,-1.902 h 0.969 v -4.497 h -1.487 c -3.495,0 -5.985,1.349 -7.542,4.151 l -2.733,4.359 H 0 v -8.51 h -4.773 z"
           style="fill:#4d4d4d;fill-opacity:1;fill-rule:nonzero;stroke:none"
           id="path398" /></g><path
         d="m 491.88,264.772 h 4.773 v -23.868 h -4.773 z"
         style="fill:#4d4d4d;fill-opacity:1;fill-rule:nonzero;stroke:none"
         id="path400" /><g
         id="g402"
         transform="translate(517.6134,252.8386)"><path
           d="m 0,0 c 0,7.021 5.396,12.349 12.592,12.349 6.054,0 10.896,-3.874 12.003,-9.305 h -5.05 C 18.576,5.846 15.843,7.748 12.592,7.748 8.198,7.748 4.878,4.428 4.878,0 c 0,-4.428 3.32,-7.749 7.714,-7.749 3.251,0 5.984,1.902 6.953,4.704 h 5.05 C 23.488,-8.476 18.646,-12.35 12.592,-12.35 5.396,-12.35 0,-7.022 0,0"
           style="fill:#4d4d4d;fill-opacity:1;fill-rule:nonzero;stroke:none"
           id="path404" /></g><g
         id="g406"
         transform="translate(574.8595,249.9324)"><path
           d="M 0,0 -3.494,9.582 -7.022,0 Z m -6.261,14.84 h 5.638 L 8.544,-9.028 H 3.321 L 1.626,-4.393 H -8.647 l -1.662,-4.635 h -5.154 z"
           style="fill:#4d4d4d;fill-opacity:1;fill-rule:nonzero;stroke:none"
           id="path408" /></g></g></g></svg>
