<svg xmlns:inkscape="http://www.inkscape.org/namespaces/inkscape" xmlns:sodipodi="http://sodipodi.sourceforge.net/DTD/sodipodi-0.dtd" xmlns="http://www.w3.org/2000/svg" xmlns:svg="http://www.w3.org/2000/svg" version="1.1" id="svg2" sodipodi:docname="Safe4all_rgb.ai" viewBox="315.5 171.82 498.76 430.27">
  <defs id="defs6">
    <clipPath clipPathUnits="userSpaceOnUse" id="clipPath16">
      <path d="M 0,595.276 H 841.89 V 0 H 0 Z" id="path14"/>
    </clipPath>
  </defs>
  <sodipodi:namedview id="namedview4" pagecolor="#ffffff" bordercolor="#000000" borderopacity="0.25" inkscape:showpageshadow="2" inkscape:pageopacity="0.0" inkscape:pagecheckerboard="0" inkscape:deskcolor="#d1d1d1"/>
  <g id="g8" inkscape:groupmode="layer" inkscape:label="Safe4all_rgb" transform="matrix(1.3333333,0,0,-1.3333333,0,793.70133)">
    <g id="g10">
      <g id="g12" clip-path="url(#clipPath16)">
        <g id="g18" transform="translate(236.6233,208.1184)">
          <path d="m 0,0 h 14.264 c 0,-3.062 3.303,-5.56 7.413,-5.56 3.707,0 6.768,1.934 6.768,4.432 0,7.494 -27.558,4.352 -27.558,23.208 0,10.556 8.864,17.566 20.387,17.566 11.684,0 20.548,-7.333 20.548,-17.164 H 27.64 c 0,2.741 -2.821,4.835 -6.527,4.835 -3.223,0 -6.044,-1.611 -6.044,-4.19 0,-7.655 27.64,-3.304 27.64,-22.644 0,-11.12 -9.268,-18.372 -21.193,-18.372 C 9.187,-17.889 0,-10.072 0,0" style="fill:#4d4d4d;fill-opacity:1;fill-rule:nonzero;stroke:none" id="path20"/>
        </g>
        <g id="g22" transform="translate(314.4003,212.7121)">
          <path d="M 0,0 -6.366,18.775 -12.731,0 Z M -14.424,34.086 H 1.935 L 22.402,-21.516 H 7.253 l -2.982,8.784 h -21.354 l -2.901,-8.784 h -14.908 z" style="fill:#4d4d4d;fill-opacity:1;fill-rule:nonzero;stroke:none" id="path24"/>
        </g>
        <g id="g26" transform="translate(342.394,246.7981)">
          <path d="M 0,0 H 36.02 V -13.055 H 13.86 v -8.702 H 32.958 V -34.812 H 13.86 v -20.79 H 0 Z" style="fill:#4d4d4d;fill-opacity:1;fill-rule:nonzero;stroke:none" id="path28"/>
        </g>
        <g id="g30" transform="translate(384.0091,246.7981)">
          <path d="M 0,0 H 37.229 V -13.055 H 13.86 v -8.057 H 34.65 V -34.167 H 13.86 v -8.38 h 23.772 v -13.055 l -37.632,0 z" style="fill:#4d4d4d;fill-opacity:1;fill-rule:nonzero;stroke:none" id="path32"/>
        </g>
        <g id="g34" transform="translate(426.8235,212.0676)">
          <path d="M 0,0 C 9.59,12.167 14.908,23.933 16.116,34.73 H 30.702 C 29.413,24.255 25.142,13.215 17.486,1.772 h 8.22 v 8.704 H 38.841 V 1.772 h 5.076 v -13.054 h -5.076 v -9.589 H 24.98 v 9.589 H 0 Z" style="fill:#4d4d4d;fill-opacity:1;fill-rule:nonzero;stroke:none" id="path36"/>
        </g>
        <g id="g38" transform="translate(507.3689,212.7121)">
          <path d="M 0,0 -6.366,18.775 -12.731,0 Z M -14.424,34.086 H 1.935 L 22.402,-21.516 H 7.253 l -2.982,8.784 h -21.354 l -2.901,-8.784 h -14.908 z" style="fill:#4d4d4d;fill-opacity:1;fill-rule:nonzero;stroke:none" id="path40"/>
        </g>
        <g id="g42" transform="translate(535.254,246.7981)">
          <path d="M 0,0 H 13.86 V -42.547 H 35.214 V -55.602 H 0 Z" style="fill:#4d4d4d;fill-opacity:1;fill-rule:nonzero;stroke:none" id="path44"/>
        </g>
        <g id="g46" transform="translate(575.4781,246.7981)">
          <path d="M 0,0 H 13.86 V -42.547 H 35.214 V -55.602 H 0 Z" style="fill:#4d4d4d;fill-opacity:1;fill-rule:nonzero;stroke:none" id="path48"/>
        </g>
        <g id="g50" transform="translate(330.6158,153.1565)">
          <path d="M 0,0 -3.494,9.582 -7.022,0 Z m -6.261,14.84 h 5.638 L 8.544,-9.028 H 3.32 L 1.626,-4.393 H -8.647 l -1.662,-4.635 h -5.154 z" style="fill:#4d4d4d;fill-opacity:1;fill-rule:nonzero;stroke:none" id="path52"/>
        </g>
        <g id="g54" transform="translate(358.9088,167.9963)">
          <path d="M 0,0 H 15.186 V -4.497 H 4.773 v -5.361 h 9.029 v -4.497 H 4.773 v -9.513 H 0 Z" style="fill:#4d4d4d;fill-opacity:1;fill-rule:nonzero;stroke:none" id="path56"/>
        </g>
        <g id="g58" transform="translate(399.5855,163.4993)">
          <path d="m 0,0 v -6.711 h 5.742 c 1.868,0 3.286,1.453 3.286,3.356 C 9.028,-1.452 7.61,0 5.742,0 Z M -4.773,4.497 H 5.846 c 4.6,0 8.094,-3.355 8.094,-7.817 0,-3.598 -2.352,-6.4 -5.742,-7.265 l 1.66,-2.387 c 0.9,-1.28 2.111,-1.902 3.598,-1.902 h 0.969 v -4.497 h -1.487 c -3.495,0 -5.985,1.349 -7.542,4.151 l -2.733,4.359 H 0 v -8.51 h -4.773 z" style="fill:#4d4d4d;fill-opacity:1;fill-rule:nonzero;stroke:none" id="path60"/>
        </g>
        <path d="m 434.52,167.996 h 4.773 v -23.868 h -4.773 z" style="fill:#4d4d4d;fill-opacity:1;fill-rule:nonzero;stroke:none" id="path62"/>
        <g id="g64" transform="translate(460.2535,156.0627)">
          <path d="m 0,0 c 0,7.021 5.396,12.349 12.592,12.349 6.054,0 10.896,-3.874 12.003,-9.305 h -5.05 C 18.576,5.846 15.843,7.748 12.592,7.748 8.198,7.748 4.878,4.428 4.878,0 c 0,-4.428 3.32,-7.749 7.714,-7.749 3.251,0 5.984,1.902 6.953,4.704 h 5.05 C 23.488,-8.476 18.646,-12.35 12.592,-12.35 5.396,-12.35 0,-7.022 0,0" style="fill:#4d4d4d;fill-opacity:1;fill-rule:nonzero;stroke:none" id="path66"/>
        </g>
        <g id="g68" transform="translate(517.4996,153.1565)">
          <path d="M 0,0 -3.494,9.582 -7.022,0 Z m -6.261,14.84 h 5.638 L 8.544,-9.028 H 3.321 L 1.626,-4.393 H -8.647 l -1.662,-4.635 h -5.154 z" style="fill:#4d4d4d;fill-opacity:1;fill-rule:nonzero;stroke:none" id="path70"/>
        </g>
        <g id="g72" transform="translate(451.596,400.2849)">
          <path d="m 0,0 c 0,-9.38 -10.596,-16.983 -10.596,-16.983 -13.765,9.751 -13.674,24.285 0,33.966 C -10.596,16.983 0,9.38 0,0" style="fill:#ffe619;fill-opacity:1;fill-rule:nonzero;stroke:none" id="path74"/>
        </g>
        <g id="g76" transform="translate(431.99,380.6828)">
          <path d="m 0,0 c 6.623,-6.634 4.502,-19.515 4.502,-19.515 -16.617,-2.85 -26.815,7.494 -23.985,24.024 0,0 12.86,2.125 19.483,-4.509" style="fill:#ffe619;fill-opacity:1;fill-rule:nonzero;stroke:none" id="path78"/>
        </g>
        <g id="g80" transform="translate(431.99,350.2124)">
          <path d="m 0,0 c 6.623,-6.634 4.502,-19.515 4.502,-19.515 -16.617,-2.85 -26.815,7.494 -23.985,24.024 0,0 12.86,2.125 19.483,-4.509" style="fill:#ffe619;fill-opacity:1;fill-rule:nonzero;stroke:none" id="path82"/>
        </g>
        <g id="g84" transform="translate(448.597,380.6828)">
          <path d="m 0,0 c -6.623,-6.634 -4.502,-19.515 -4.502,-19.515 16.617,-2.85 26.815,7.494 23.985,24.024 C 19.483,4.509 6.623,6.634 0,0" style="fill:#ffe619;fill-opacity:1;fill-rule:nonzero;stroke:none" id="path86"/>
        </g>
        <g id="g88" transform="translate(448.5971,350.2124)">
          <path d="m 0,0 c -6.623,-6.634 -4.502,-19.515 -4.502,-19.515 16.617,-2.85 26.815,7.494 23.984,24.024 C 19.482,4.509 6.623,6.634 0,0" style="fill:#ffe619;fill-opacity:1;fill-rule:nonzero;stroke:none" id="path90"/>
        </g>
        <g id="g92" transform="translate(440.6911,310.9611)">
          <path d="m 0,0 v 0 c -36.205,0 -58.832,37.86 -40.73,68.147 v 0 l 36.935,61.798 c 1.579,2.641 1.579,5.937 0,8.578 l -9.595,16.054 c -0.698,1.167 -2.387,1.167 -3.085,0 L -67.108,69.86 h -10e-4 c -23.189,-38.799 5.798,-87.298 52.176,-87.298 25.975,0 46.493,15.212 55.446,35.413 0.596,1.345 -1.239,2.42 -2.106,1.23 C 30.112,7.825 16.459,0 0,0" style="fill:#92d6e3;fill-opacity:1;fill-rule:nonzero;stroke:none" id="path94"/>
        </g>
      </g>
    </g>
  </g>
</svg>