<svg xmlns="http://www.w3.org/2000/svg" viewBox="0 0 32 32" width="32" height="32">
  <rect width="32" height="32" rx="6" fill="#000000"/>
  <g transform="translate(2.0, 22.591) scale(0.01902, -0.01902)">
    <path fill="white" d="M65 0V693H478L461 576H229V392H431V275H229V0Z"/>
    <path fill="white" transform="translate(547,0)" d="M229 693V0H65V693Z"/>
    <path fill="white" transform="translate(900,0)" d="M528 621 452 532Q381 590 300 590Q257 590 232.0 572.5Q207 555 207 522Q207 499 218.0 484.5Q229 470 257.0 457.0Q285 444 341 426Q447 392 497.0 342.5Q547 293 547 202Q547 137 514.0 87.5Q481 38 419.0 10.5Q357 -17 272 -17Q187 -17 121.5 10.0Q56 37 9 82L92 173Q132 139 174.5 122.0Q217 105 267 105Q318 105 347.5 127.5Q377 150 377 190Q377 216 366.0 233.5Q355 251 328.0 265.0Q301 279 250 295Q135 330 86.5 381.0Q38 432 38 510Q38 570 70.0 615.5Q102 661 159.0 685.5Q216 710 288 710Q366 710 423.5 688.0Q481 666 528 621Z"/>
  </g>
</svg>
